<svg width="24" height="24" viewBox="0 0 24 24" fill="none" xmlns="http://www.w3.org/2000/svg">
<mask id="mask0_129_1823" style="mask-type:luminance" maskUnits="userSpaceOnUse" x="0" y="0" width="24" height="24">
<rect width="24" height="24" fill="white"/>
</mask>
<g mask="url(#mask0_129_1823)">
<path fill-rule="evenodd" clip-rule="evenodd" d="M7.27519 21.7235C7.45865 21.9078 7.68803 22 7.96332 22H15.7366C16.009 22 16.2374 21.9078 16.4217 21.7235C16.606 21.5392 16.6982 21.3108 16.6982 21.0384V4.88489C16.6982 4.61243 16.606 4.38404 16.4217 4.19973C16.2374 4.01542 16.009 3.92327 15.7366 3.92327H13.8133V2.96162C13.8133 2.68916 13.7211 2.46078 13.5368 2.27647C13.3525 2.09216 13.1241 2 12.8516 2H10.8465C10.5741 2 10.3457 2.09216 10.1614 2.27647C9.97704 2.46078 9.88489 2.68916 9.88489 2.96162V3.92327H7.96162C7.68916 3.92327 7.46078 4.01542 7.27647 4.19973C7.09216 4.38404 7 4.61243 7 4.88489V21.0384C7 21.3108 7.09173 21.5392 7.27519 21.7235ZM15.1023 9.76469H8.59586V5.50892H15.1023V9.76469Z" fill="#00FE53"/>
</g>
</svg>
